<svg width="800" height="600" viewBox="0 0 800 600" fill="none" xmlns="http://www.w3.org/2000/svg">
  <rect width="800" height="600" fill="#1A1A1A"/>
  
  <!-- Header Bar -->
  <rect width="800" height="40" fill="#2D2D2D"/>
  <circle cx="20" cy="20" r="6" fill="#FF5F57"/>
  <circle cx="40" cy="20" r="6" fill="#FEBC2E"/>
  <circle cx="60" cy="20" r="6" fill="#28C840"/>
  
  <!-- Left Sidebar (Tools) -->
  <rect y="40" width="60" height="560" fill="#252525"/>
  <rect x="15" y="60" width="30" height="30" rx="4" fill="#404040"/>
  <rect x="15" y="100" width="30" height="30" rx="4" fill="#404040"/>
  <rect x="15" y="140" width="30" height="30" rx="4" fill="#FF5722"/> <!-- Active Tool -->
  <rect x="15" y="180" width="30" height="30" rx="4" fill="#404040"/>
  
  <!-- Right Sidebar (Properties) -->
  <rect x="600" y="40" width="200" height="560" fill="#252525"/>
  <rect x="620" y="60" width="160" height="100" rx="4" fill="#333333"/>
  <rect x="620" y="180" width="160" height="20" rx="2" fill="#333333"/>
  <rect x="620" y="210" width="160" height="20" rx="2" fill="#333333"/>
  <rect x="620" y="240" width="70" height="20" rx="2" fill="#333333"/>
  <rect x="710" y="240" width="70" height="20" rx="2" fill="#333333"/>
  
  <!-- Main Canvas Area -->
  <rect x="60" y="40" width="540" height="560" fill="#1E1E1E"/>
  
  <!-- Canvas Content (Comic Strip) -->
  <rect x="100" y="80" width="460" height="480" fill="white"/>
  
  <!-- Panel 1 -->
  <rect x="120" y="100" width="420" height="140" stroke="black" stroke-width="2"/>
  <circle cx="200" cy="170" r="40" fill="#E0E0E0"/>
  <rect x="260" y="150" width="200" height="10" rx="2" fill="#E0E0E0"/>
  <rect x="260" y="170" width="150" height="10" rx="2" fill="#E0E0E0"/>
  
  <!-- Panel 2 -->
  <rect x="120" y="260" width="200" height="280" stroke="black" stroke-width="2"/>
  <path d="M120 540 L320 540 L320 400 L220 300 L120 400 Z" fill="#F5F5F5"/>
  
  <!-- Panel 3 -->
  <rect x="340" y="260" width="200" height="280" stroke="black" stroke-width="2"/>
  <circle cx="440" cy="400" r="60" fill="#FFCCBC"/>
  
  <!-- Floating Palette -->
  <rect x="450" y="450" width="120" height="80" rx="4" fill="#2D2D2D" stroke="#404040" stroke-width="1"/>
  <circle cx="470" cy="490" r="10" fill="#F44336"/>
  <circle cx="500" cy="490" r="10" fill="#2196F3"/>
  <circle cx="530" cy="490" r="10" fill="#4CAF50"/>
  
</svg>
